<?xml version="1.0" encoding="UTF-8" standalone="no"?>
<!DOCTYPE svg PUBLIC "-//W3C//DTD SVG 1.1//EN" "http://www.w3.org/Graphics/SVG/1.1/DTD/svg11.dtd">
<svg width="453px" height="494px" version="1.1" xmlns="http://www.w3.org/2000/svg" xmlns:xlink="http://www.w3.org/1999/xlink" xml:space="preserve" xmlns:serif="http://www.serif.com/" style="fill-rule:evenodd;clip-rule:evenodd;stroke-linejoin:round;stroke-miterlimit:2;">
    <g transform="matrix(1,0,0,1,-3748.25,-269.95)">
        <g transform="matrix(0.823063,0,0,0.823063,3765.47,105.337)">
            <g transform="matrix(-1,0,0,1,541.389,911.815)">
                <path d="M162.304,-111.815L162.304,-711.815L12.304,-591.815L12.304,-231.815L162.304,-111.815Z"/>
            </g>
        </g>
        <g transform="matrix(0.823063,0,0,0.823063,3765.47,105.337)">
            <g transform="matrix(-1,0,0,1,393.087,911.815)">
                <path d="M214.002,-361.815L214.002,-711.815L64.002,-711.815L64.002,-361.815L138.849,-291.409L214.002,-361.815Z"/>
            </g>
        </g>
        <g transform="matrix(0.823063,0,0,0.823063,3765.47,105.337)">
            <g transform="matrix(1,0,0,1,-84.2994,911.815)">
                <path d="M213.384,-111.815L213.384,-711.815L63.384,-591.815L63.384,-231.815L213.384,-111.815Z"/>
            </g>
        </g>
    </g>
</svg>
